<?xml version="1.0" encoding="utf-8"?>
<svg version="1.1" xmlns:xlink="http://www.w3.org/1999/xlink" width="107px" height="107px" xmlns="http://www.w3.org/2000/svg">
  <g transform="matrix(1 0 0 1 -194 -203 )">
    <path d="M 247.5 203  C 277.46 203  301 226.54  301 256.5  C 301 286.46  277.46 310  247.5 310  C 217.54 310  194 286.46  194 256.5  C 194 226.54  217.54 203  247.5 203  Z " fill-rule="nonzero" fill="#ffffff" stroke="none" />
    <path d="M 247.5 203.5  C 277.18 203.5  300.5 226.82  300.5 256.5  C 300.5 286.18  277.18 309.5  247.5 309.5  C 217.82 309.5  194.5 286.18  194.5 256.5  C 194.5 226.82  217.82 203.5  247.5 203.5  Z " stroke-width="1" stroke="#797979" fill="none" />
  </g>
</svg>