<?xml version="1.0" encoding="utf-8"?>
<svg version="1.1" xmlns:xlink="http://www.w3.org/1999/xlink" width="16px" height="13px" xmlns="http://www.w3.org/2000/svg">
  <g transform="matrix(1 0 0 1 -853 -185 )">
    <path d="M 15.7109677419355 1.79461279461279  C 15.9036559139785 1.99887766554433  16 2.24691358024691  16 2.53872053872054  C 16 2.83052749719416  15.9036559139785 3.07856341189674  15.7109677419355 3.28282828282828  L 8.23741935483871 11.2053872053872  L 6.83354838709677 12.6936026936027  C 6.64086021505376 12.8978675645342  6.40688172043011 13  6.13161290322581 13  C 5.85634408602151 13  5.62236559139785 12.8978675645342  5.42967741935484 12.6936026936027  L 4.0258064516129 11.2053872053872  L 0.289032258064516 7.24410774410774  C 0.0963440860215055 7.03984287317621  0 6.79180695847362  0 6.5  C 0 6.20819304152637  0.0963440860215055 5.96015712682379  0.289032258064516 5.75589225589226  L 1.69290322580645 4.26767676767677  C 1.88559139784946 4.06341189674523  2.11956989247312 3.96127946127946  2.39483870967742 3.96127946127946  C 2.67010752688172 3.96127946127946  2.90408602150538 4.06341189674523  3.09677419354839 4.26767676767677  L 6.13161290322581 7.49579124579125  L 12.9032258064516 0.306397306397306  C 13.0959139784946 0.102132435465768  13.3298924731183 0  13.6051612903226 0  C 13.8804301075269 0  14.1144086021505 0.102132435465768  14.3070967741935 0.306397306397306  L 15.7109677419355 1.79461279461279  Z " fill-rule="nonzero" fill="#c8c8c8" stroke="none" transform="matrix(1 0 0 1 853 185 )" />
  </g>
</svg>