<?xml version="1.0" encoding="utf-8"?>
<svg version="1.1" xmlns:xlink="http://www.w3.org/1999/xlink" width="32px" height="12px" xmlns="http://www.w3.org/2000/svg">
  <g transform="matrix(1 0 0 1 -477 -868 )">
    <path d="M 10.6666666666667 9.6  L 3.55555555555556 9.6  L 3.55555555555556 2.4  L 10.6666666666667 2.4  L 10.6666666666667 9.6  Z M 30.2222222222222 1.5  L 30.2222222222222 3  C 30.712962962963 3  31.1319444444444 3.1171875  31.4791666666667 3.3515625  C 31.8263888888889 3.5859375  32 3.86875  32 4.2  L 32 7.8  C 32 8.13125  31.8263888888889 8.4140625  31.4791666666667 8.6484375  C 31.1319444444444 8.8828125  30.712962962963 9  30.2222222222222 9  L 30.2222222222222 10.5  C 30.2222222222222 10.9125  30.0046296296296 11.265625  29.5694444444444 11.559375  C 29.1342592592593 11.853125  28.6111111111111 12  28 12  L 2.22222222222222 12  C 1.61111111111111 12  1.08796296296296 11.853125  0.652777777777778 11.559375  C 0.217592592592593 11.265625  0 10.9125  0 10.5  L 0 1.5  C 0 1.0875  0.217592592592593 0.734375  0.652777777777778 0.440625  C 1.08796296296296 0.146874999999998  1.61111111111111 0  2.22222222222222 0  L 28 0  C 28.6111111111111 0  29.1342592592593 0.146874999999998  29.5694444444444 0.440625  C 30.0046296296296 0.734375  30.2222222222222 1.0875  30.2222222222222 1.5  Z M 28.4444444444444 7.8  L 30.2222222222222 7.8  L 30.2222222222222 4.2  L 28.4444444444444 4.2  L 28.4444444444444 1.5  C 28.4444444444444 1.4125  28.4027777777778 1.340625  28.3194444444444 1.284375  C 28.2361111111111 1.228125  28.1296296296296 1.2  28 1.2  L 2.22222222222222 1.2  C 2.09259259259259 1.2  1.98611111111111 1.228125  1.90277777777778 1.284375  C 1.81944444444444 1.340625  1.77777777777778 1.4125  1.77777777777778 1.5  L 1.77777777777778 10.5  C 1.77777777777778 10.5875  1.81944444444444 10.659375  1.90277777777778 10.715625  C 1.98611111111111 10.771875  2.09259259259259 10.8  2.22222222222222 10.8  L 28 10.8  C 28.1296296296296 10.8  28.2361111111111 10.771875  28.3194444444444 10.715625  C 28.4027777777778 10.659375  28.4444444444444 10.5875  28.4444444444444 10.5  L 28.4444444444444 7.8  Z " fill-rule="nonzero" fill="#7f7f7f" stroke="none" transform="matrix(1 0 0 1 477 868 )" />
  </g>
</svg>