<?xml version="1.0" encoding="utf-8"?>
<svg version="1.1" xmlns:xlink="http://www.w3.org/1999/xlink" width="132px" height="132px" xmlns="http://www.w3.org/2000/svg">
  <g transform="matrix(1 0 0 1 -173 -236 )">
    <path d="M 239 236  C 275.96 236  305 265.04  305 302  C 305 338.96  275.96 368  239 368  C 202.04 368  173 338.96  173 302  C 173 265.04  202.04 236  239 236  Z " fill-rule="nonzero" fill="#ffffff" stroke="none" />
    <path d="M 239 236.5  C 275.68 236.5  304.5 265.32  304.5 302  C 304.5 338.68  275.68 367.5  239 367.5  C 202.32 367.5  173.5 338.68  173.5 302  C 173.5 265.32  202.32 236.5  239 236.5  Z " stroke-width="1" stroke="#797979" fill="none" />
  </g>
</svg>