<?xml version="1.0" encoding="utf-8"?>
<svg version="1.1" xmlns:xlink="http://www.w3.org/1999/xlink" width="9px" height="15px" xmlns="http://www.w3.org/2000/svg">
  <g transform="matrix(1 0 0 1 -239 -345 )">
    <path d="M 8.703125 6.8408203125  C 8.90104166666667 7.0263671875  9 7.24609375  9 7.5  C 9 7.75390625  8.90104166666667 7.9736328125  8.703125 8.1591796875  L 1.703125 14.7216796875  C 1.50520833333333 14.9072265625  1.27083333333333 15  1 15  C 0.729166666666667 15  0.494791666666667 14.9072265625  0.296875 14.7216796875  C 0.0989583333333333 14.5361328125  0 14.31640625  0 14.0625  L 0 0.9375  C 0 0.683593749999998  0.0989583333333333 0.463867187499998  0.296875 0.2783203125  C 0.494791666666667 0.0927734374999989  0.729166666666667 0  1 0  C 1.27083333333333 0  1.50520833333333 0.0927734374999989  1.703125 0.2783203125  L 8.703125 6.8408203125  Z " fill-rule="nonzero" fill="#555555" stroke="none" transform="matrix(1 0 0 1 239 345 )" />
  </g>
</svg>