<?xml version="1.0" encoding="utf-8"?>
<svg version="1.1" xmlns:xlink="http://www.w3.org/1999/xlink" width="37px" height="37px" xmlns="http://www.w3.org/2000/svg">
  <g transform="matrix(1 0 0 1 -134 -446 )">
    <path d="M 152.5 446  C 162.86 446  171 454.14  171 464.5  C 171 474.86  162.86 483  152.5 483  C 142.14 483  134 474.86  134 464.5  C 134 454.14  142.14 446  152.5 446  Z " fill-rule="nonzero" fill="#ffffff" stroke="none" />
    <path d="M 152.5 446.5  C 162.58 446.5  170.5 454.42  170.5 464.5  C 170.5 474.58  162.58 482.5  152.5 482.5  C 142.42 482.5  134.5 474.58  134.5 464.5  C 134.5 454.42  142.42 446.5  152.5 446.5  Z " stroke-width="1" stroke="#797979" fill="none" />
  </g>
</svg>