<?xml version="1.0" encoding="utf-8"?>
<svg version="1.1" xmlns:xlink="http://www.w3.org/1999/xlink" width="57px" height="57px" xmlns="http://www.w3.org/2000/svg">
  <g transform="matrix(1 0 0 1 -413 -334 )">
    <path d="M 441.5 334  C 457.46 334  470 346.54  470 362.5  C 470 378.46  457.46 391  441.5 391  C 425.54 391  413 378.46  413 362.5  C 413 346.54  425.54 334  441.5 334  Z " fill-rule="nonzero" fill="#ffffff" stroke="none" />
    <path d="M 441.5 334.5  C 457.18 334.5  469.5 346.82  469.5 362.5  C 469.5 378.18  457.18 390.5  441.5 390.5  C 425.82 390.5  413.5 378.18  413.5 362.5  C 413.5 346.82  425.82 334.5  441.5 334.5  Z " stroke-width="1" stroke="#797979" fill="none" />
  </g>
</svg>