<?xml version="1.0" encoding="utf-8"?>
<svg version="1.1" xmlns:xlink="http://www.w3.org/1999/xlink" width="16px" height="12px" xmlns="http://www.w3.org/2000/svg">
  <g transform="matrix(1 0 0 1 -258 -373 )">
    <path d="M 15.3 6.68607954545455  C 15.7666666666667 7.27982954545455  16 7.96022727272727  16 8.72727272727273  C 16 9.63068181818182  15.6875 10.4019886363636  15.0625 11.0411931818182  C 14.4375 11.6803977272727  13.6833333333333 12  12.8 12  L 3.73333333333333 12  C 2.70555555555556 12  1.82638888888889 11.6264204545455  1.09583333333333 10.8792613636364  C 0.365277777777778 10.1321022727273  0 9.23295454545455  0 8.18181818181818  C 0 7.43181818181818  0.197222222222222 6.74573863636364  0.591666666666667 6.12357954545455  C 0.986111111111111 5.50142045454546  1.50555555555556 5.03693181818182  2.15 4.73011363636364  C 2.13888888888889 4.57102272727273  2.13333333333333 4.44886363636364  2.13333333333333 4.36363636363636  C 2.13333333333333 3.15909090909091  2.55 2.13068181818182  3.38333333333333 1.27840909090909  C 4.21666666666667 0.426136363636364  5.22222222222222 0  6.4 0  C 7.27777777777778 0  8.07361111111111 0.249999999999999  8.7875 0.75  C 9.50138888888889 1.25  10.0222222222222 1.90340909090909  10.35 2.71022727272727  C 10.7388888888889 2.35795454545454  11.2 2.18181818181818  11.7333333333333 2.18181818181818  C 12.3222222222222 2.18181818181818  12.825 2.39488636363636  13.2416666666667 2.82102272727273  C 13.6583333333333 3.24715909090909  13.8666666666667 3.76136363636364  13.8666666666667 4.36363636363636  C 13.8666666666667 4.78977272727273  13.7527777777778 5.18181818181818  13.525 5.53977272727273  C 14.2416666666667 5.71022727272727  14.8333333333333 6.09232954545454  15.3 6.68607954545455  Z " fill-rule="nonzero" fill="#aaaaaa" stroke="none" transform="matrix(1 0 0 1 258 373 )" />
  </g>
</svg>