<?xml version="1.0" encoding="utf-8"?>
<svg version="1.1" xmlns:xlink="http://www.w3.org/1999/xlink" width="6px" height="6px" xmlns="http://www.w3.org/2000/svg">
  <g transform="matrix(1 0 0 1 -297 -507 )">
    <path d="M 300 507  C 301.68 507  303 508.32  303 510  C 303 511.68  301.68 513  300 513  C 298.32 513  297 511.68  297 510  C 297 508.32  298.32 507  300 507  Z " fill-rule="nonzero" fill="#ffffff" stroke="none" />
    <path d="M 300 507.5  C 301.4 507.5  302.5 508.6  302.5 510  C 302.5 511.4  301.4 512.5  300 512.5  C 298.6 512.5  297.5 511.4  297.5 510  C 297.5 508.6  298.6 507.5  300 507.5  Z " stroke-width="1" stroke="#797979" fill="none" />
  </g>
</svg>