<?xml version="1.0" encoding="utf-8"?>
<svg version="1.1" xmlns:xlink="http://www.w3.org/1999/xlink" width="49px" height="40px" xmlns="http://www.w3.org/2000/svg">
  <g transform="matrix(1 0 0 1 -674 -342 )">
    <path d="M 48.0255681818182 15.3409090909091  C 48.6751893939394 15.8712121212121  49 16.5151515151515  49 17.2727272727273  L 49 22.7272727272727  C 49 23.4848484848485  48.6751893939394 24.1287878787879  48.0255681818182 24.6590909090909  C 47.375946969697 25.1893939393939  46.5871212121212 25.4545454545455  45.6590909090909 25  L 31 25  L 31 37.2727272727273  C 31.1818181818182 38.030303030303  30.8570075757576 38.6742424242424  30.2073863636364 39.2045454545455  C 29.5577651515152 39.7348484848485  28.7689393939394 40  27.8409090909091 40  L 21.1590909090909 40  C 20.2310606060606 40  19.4422348484849 39.7348484848485  18.7926136363636 39.2045454545455  C 18.1429924242424 38.6742424242424  17.8181818181818 38.030303030303  18 37.2727272727273  L 18 25  L 3.34090909090909 25  C 2.41287878787879 25.4545454545455  1.62405303030303 25.1893939393939  0.974431818181818 24.6590909090909  C 0.324810606060606 24.1287878787879  0 23.4848484848485  0 22.7272727272727  L 0 17.2727272727273  C 0 16.5151515151515  0.324810606060606 15.8712121212121  0.974431818181818 15.3409090909091  C 1.62405303030303 14.8106060606061  2.41287878787879 14.5454545454545  3.34090909090909 15  L 18 15  L 18 2.72727272727273  C 17.8181818181818 1.96969696969697  18.1429924242424 1.32575757575757  18.7926136363636 0.795454545454546  C 19.4422348484849 0.265151515151514  20.2310606060606 0  21.1590909090909 0  L 27.8409090909091 0  C 28.7689393939394 0  29.5577651515152 0.265151515151514  30.2073863636364 0.795454545454546  C 30.8570075757576 1.32575757575757  31.1818181818182 1.96969696969697  31 2.72727272727273  L 31 15  L 45.6590909090909 15  C 46.5871212121212 14.5454545454545  47.375946969697 14.8106060606061  48.0255681818182 15.3409090909091  Z " fill-rule="nonzero" fill="#aaaaaa" stroke="none" transform="matrix(1 0 0 1 674 342 )" />
  </g>
</svg>