<?xml version="1.0" encoding="utf-8"?>
<svg version="1.1" xmlns:xlink="http://www.w3.org/1999/xlink" width="49px" height="12px" xmlns="http://www.w3.org/2000/svg">
  <g transform="matrix(1 0 0 1 -674 -382 )">
    <path d="M 48.0255681818182 0.875  C 48.6751893939394 1.45833333333333  49 2.16666666666666  49 3  L 49 9  C 49 9.83333333333333  48.6751893939394 10.5416666666667  48.0255681818182 11.125  C 47.375946969697 11.7083333333333  46.5871212121212 12  45.6590909090909 12  L 3.34090909090909 12  C 2.41287878787879 12  1.62405303030303 11.7083333333333  0.974431818181818 11.125  C 0.324810606060606 10.5416666666667  0 9.83333333333333  0 9  L 0 3  C 0 2.16666666666666  0.324810606060606 1.45833333333333  0.974431818181818 0.875  C 1.62405303030303 0.291666666666664  2.41287878787879 0  3.34090909090909 0  L 45.6590909090909 0  C 46.5871212121212 0  47.375946969697 0.291666666666664  48.0255681818182 0.875  Z " fill-rule="nonzero" fill="#aaaaaa" stroke="none" transform="matrix(1 0 0 1 674 382 )" />
  </g>
</svg>