<?xml version="1.0" encoding="utf-8"?>
<svg version="1.1" xmlns:xlink="http://www.w3.org/1999/xlink" width="103px" height="103px" xmlns="http://www.w3.org/2000/svg">
  <g transform="matrix(1 0 0 1 -744 -242 )">
    <path d="M 795.5 242  C 824.34 242  847 264.66  847 293.5  C 847 322.34  824.34 345  795.5 345  C 766.66 345  744 322.34  744 293.5  C 744 264.66  766.66 242  795.5 242  Z " fill-rule="nonzero" fill="#ffffff" stroke="none" />
    <path d="M 795.5 242.5  C 824.06 242.5  846.5 264.94  846.5 293.5  C 846.5 322.06  824.06 344.5  795.5 344.5  C 766.94 344.5  744.5 322.06  744.5 293.5  C 744.5 264.94  766.94 242.5  795.5 242.5  Z " stroke-width="1" stroke="#797979" fill="none" />
  </g>
</svg>