<?xml version="1.0" encoding="utf-8"?>
<svg version="1.1" xmlns:xlink="http://www.w3.org/1999/xlink" width="19px" height="20px" xmlns="http://www.w3.org/2000/svg">
  <g transform="matrix(1 0 0 1 -684 -327 )">
    <path d="M 13.4524133242692 17.5325520833333  C 14.5675277588942 16.9986979166667  15.5168819397235 16.2543402777778  16.3004758667573 15.2994791666667  C 15.8354860639021 15.3776041666667  15.3618853387718 15.4166666666667  14.8796736913664 15.4166666666667  C 13.3124858372989 15.4166666666667  11.8615454339452 15.0260416666667  10.5268524813052 14.2447916666667  C 9.19215952866531 13.4635416666667  8.13732154996601 12.4001736111111  7.36233854520734 11.0546875  C 6.58735554044867 9.70920138888889  6.19986403806934 8.24652777777778  6.19986403806934 6.66666666666667  C 6.19986403806934 5  6.64763199637435 3.45052083333333  7.54316791298437 2.01822916666667  C 5.81237253569001 2.5390625  4.39802855200544 3.53298611111111  3.30013596193066 5  C 2.20224337185588 6.46701388888889  1.65329707681849 8.13368055555555  1.65329707681849 10  C 1.65329707681849 11.1284722222222  1.87287559483345 12.20703125  2.31203263086336 13.2356770833333  C 2.75118966689327 14.2643229166667  3.33888511216859 15.1497395833333  4.07511896668933 15.8919270833333  C 4.81135282121006 16.6341145833333  5.68966689326988 17.2265625  6.7100611828688 17.6692708333333  C 7.73045547246771 18.1119791666667  8.80036256514843 18.3333333333333  9.91978246091094 18.3333333333333  C 11.1597552685248 18.3333333333333  12.3372988896442 18.06640625  13.4524133242692 17.5325520833333  Z M 18.980625424881 13.6979166666667  C 19.0107636528439 13.8715277777778  18.9913890777249 14.0364583333333  18.9225016995241 14.1927083333333  C 18.1130750056651 15.9548611111111  16.8924767731702 17.36328125  15.2607070020394 18.41796875  C 13.6289372309087 19.47265625  11.8486290505325 20  9.91978246091094 20  C 8.57647858599592 20  7.29345116700657 19.7352430555556  6.0707002039429 19.2057291666667  C 4.84794924087922 18.6762152777778  3.79311126217992 17.9644097222222  2.906186267845 17.0703125  C 2.01926127351008 16.1762152777778  1.31316564695219 15.1128472222222  0.787899388171312 13.8802083333333  C 0.262633129390437 12.6475694444444  0 11.3541666666667  0 10  C 0 8.671875  0.247564015409019 7.40234375  0.742692046227057 6.19140625  C 1.23782007704509 4.98046875  1.90947201450261 3.93229166666667  2.75764785859959 3.046875  C 3.60582370269658 2.16145833333333  4.61975980058917 1.44748263888889  5.79945615227736 0.904947916666667  C 6.97915250396556 0.362413194444444  8.22773623385452 0.0651041666666674  9.54520734194426 0.0130208333333326  C 9.9240879220485 -0.00434027777778123  10.1867210514389 0.164930555555554  10.3331067301156 0.520833333333333  C 10.4881033310673 0.876736111111109  10.4235214140041 1.18923611111111  10.1393609789259 1.45833333333333  C 9.39882166326762 2.13541666666667  8.83265352368004 2.92317708333333  8.44085656016315 3.82161458333333  C 8.04905959664627 4.72005208333333  7.85316111488783 5.66840277777778  7.85316111488783 6.66666666666667  C 7.85316111488783 7.95138888888889  8.16745977792885 9.13628472222222  8.79605710401088 10.2213541666667  C 9.42465443009291 11.3064236111111  10.2771357353274 12.1657986111111  11.3535010197145 12.7994791666667  C 12.4298663041015 13.4331597222222  13.6052571946522 13.75  14.8796736913664 13.75  C 15.8957625198278 13.75  16.8774076591888 13.5286458333333  17.8246091094494 13.0859375  C 18.1776569227283 12.9296875  18.4876501246318 12.9861111111111  18.7545887151598 13.2552083333333  C 18.8751416270111 13.3767361111111  18.9504871969182 13.5243055555556  18.980625424881 13.6979166666667  Z " fill-rule="nonzero" fill="#000000" stroke="none" transform="matrix(1 0 0 1 684 327 )" />
  </g>
</svg>