<?xml version="1.0" encoding="utf-8"?>
<svg version="1.1" xmlns:xlink="http://www.w3.org/1999/xlink" width="17px" height="18px" xmlns="http://www.w3.org/2000/svg">
  <g transform="matrix(1 0 0 1 -898 -327 )">
    <path d="M 13.7801522248244 11.2412060301508  C 14.0820647931304 10.5276381909548  14.2330210772834 9.77889447236181  14.2330210772834 8.99497487437186  C 14.2330210772834 8.21105527638191  14.0820647931304 7.46231155778894  13.7801522248244 6.74874371859297  C 13.4782396565183 6.03517587939698  13.0701600312256 5.41876046901172  12.5559133489461 4.89949748743719  C 12.0416666666667 4.38023450586265  11.431206088993 3.96817420435511  10.7245316159251 3.66331658291457  C 10.0178571428571 3.35845896147403  9.27634660421546 3.20603015075377  8.5 3.20603015075377  C 7.72365339578454 3.20603015075377  6.98214285714286 3.35845896147403  6.27546838407494 3.66331658291457  C 5.56879391100703 3.96817420435511  4.95833333333333 4.38023450586265  4.44408665105386 4.89949748743719  C 3.9298399687744 5.41876046901172  3.52176034348166 6.03517587939698  3.21984777517564 6.74874371859297  C 2.91793520686963 7.46231155778894  2.76697892271663 8.21105527638191  2.76697892271663 8.99497487437186  C 2.76697892271663 9.77889447236181  2.91793520686963 10.5276381909548  3.21984777517564 11.2412060301508  C 3.52176034348166 11.9547738693467  3.9298399687744 12.571189279732  4.44408665105386 13.0904522613065  C 4.95833333333333 13.6097152428811  5.56879391100703 14.0217755443886  6.27546838407494 14.3266331658291  C 6.98214285714286 14.6314907872697  7.72365339578454 14.7839195979899  8.5 14.7839195979899  C 9.27634660421546 14.7839195979899  10.0178571428571 14.6314907872697  10.7245316159251 14.3266331658291  C 11.431206088993 14.0217755443886  12.0416666666667 13.6097152428811  12.5559133489461 13.0904522613065  C 13.0701600312256 12.571189279732  13.4782396565183 11.9547738693467  13.7801522248244 11.2412060301508  Z M 16.940281030445 11.4874371859296  C 17 11.5678391959799  17.0132708821233 11.6649916247906  16.980093676815 11.7788944723618  C 16.9535519125683 11.8793969849246  16.8871975019516 11.9463986599665  16.7810304449649 11.9798994974874  L 13.8747072599532 12.9447236180905  L 13.8747072599532 16.0201005025126  C 13.8747072599532 16.1273031825796  13.8315768930523 16.214405360134  13.7453161592506 16.2814070351759  C 13.6457845433255 16.3484087102178  13.5495706479313 16.3618090452261  13.4566744730679 16.321608040201  L 10.5503512880562 15.3768844221106  L 8.75878220140515 17.8693467336683  C 8.69242779078845 17.9564489112228  8.60616705698673 18  8.5 18  C 8.39383294301327 18  8.30757220921155 17.9564489112228  8.24121779859485 17.8693467336683  L 6.44964871194379 15.3768844221106  L 3.54332552693208 16.321608040201  C 3.4504293520687 16.3618090452261  3.35421545667447 16.3484087102178  3.25468384074941 16.2814070351759  C 3.1684231069477 16.214405360134  3.12529274004684 16.1273031825796  3.12529274004684 16.0201005025126  L 3.12529274004684 12.9447236180905  L 0.218969555035129 11.9798994974874  C 0.1128024980484 11.9463986599665  0.046448087431694 11.8793969849246  0.0199063231850117 11.7788944723618  C -0.0132708821233411 11.6649916247906  0 11.5678391959799  0.0597189695550351 11.4874371859296  L 1.85128805620609 8.99497487437186  L 0.0597189695550351 6.50251256281407  C 0 6.41541038525963  -0.0132708821233411 6.31825795644891  0.0199063231850117 6.21105527638191  C 0.046448087431694 6.1105527638191  0.1128024980484 6.04355108877722  0.218969555035129 6.01005025125628  L 3.12529274004684 5.04522613065327  L 3.12529274004684 1.96984924623116  C 3.12529274004684 1.86264656616415  3.1684231069477 1.77554438860971  3.25468384074941 1.70854271356784  C 3.35421545667447 1.64154103852596  3.4504293520687 1.62814070351759  3.54332552693208 1.66834170854271  L 6.44964871194379 2.61306532663316  L 8.24121779859485 0.120603015075376  C 8.30093676814988 0.0402010050251247  8.3871975019516 0  8.5 0  C 8.6128024980484 0  8.69906323185012 0.0402010050251247  8.75878220140515 0.120603015075376  L 10.5503512880562 2.61306532663316  L 13.4566744730679 1.66834170854271  C 13.5495706479313 1.62814070351759  13.6457845433255 1.64154103852596  13.7453161592506 1.70854271356784  C 13.8315768930523 1.77554438860971  13.8747072599532 1.86264656616415  13.8747072599532 1.96984924623116  L 13.8747072599532 5.04522613065327  L 16.7810304449649 6.01005025125628  C 16.8871975019516 6.04355108877722  16.9535519125683 6.1105527638191  16.980093676815 6.21105527638191  C 17.0132708821233 6.31825795644891  17 6.41541038525963  16.940281030445 6.50251256281407  L 15.1487119437939 8.99497487437186  L 16.940281030445 11.4874371859296  Z " fill-rule="nonzero" fill="#000000" stroke="none" transform="matrix(1 0 0 1 898 327 )" />
  </g>
</svg>