<?xml version="1.0" encoding="utf-8"?>
<svg version="1.1" xmlns:xlink="http://www.w3.org/1999/xlink" width="30px" height="30px" xmlns="http://www.w3.org/2000/svg">
  <g transform="matrix(1 0 0 1 -149 -612 )">
    <path d="M 164 612  C 172.4 612  179 618.6  179 627  C 179 635.4  172.4 642  164 642  C 155.6 642  149 635.4  149 627  C 149 618.6  155.6 612  164 612  Z " fill-rule="nonzero" fill="#7f7f7f" stroke="none" />
    <path d="M 164 612.5  C 172.12 612.5  178.5 618.88  178.5 627  C 178.5 635.12  172.12 641.5  164 641.5  C 155.88 641.5  149.5 635.12  149.5 627  C 149.5 618.88  155.88 612.5  164 612.5  Z " stroke-width="1" stroke="#797979" fill="none" />
  </g>
</svg>